<?xml version="1.0" encoding="UTF-8"?>
<svg width="512" height="512" viewBox="0 0 512 512" fill="none" xmlns="http://www.w3.org/2000/svg">
<rect width="512" height="512" rx="112" fill="#FF4D1C"/>
<path d="M256 120C180.889 120 120 180.889 120 256C120 331.111 180.889 392 256 392C331.111 392 392 331.111 392 256C392 180.889 331.111 120 256 120ZM256 360C198.562 360 152 313.438 152 256C152 198.562 198.562 152 256 152C313.438 152 360 198.562 360 256C360 313.438 313.438 360 256 360Z" fill="white"/>
<path d="M256 184L184 296H232V344H280V296H328L256 184Z" fill="white"/>
</svg>
